<svg xmlns="http://www.w3.org/2000/svg" version="1.1" xmlns:xlink="http://www.w3.org/1999/xlink" xmlns:svgjs="http://svgjs.dev/svgjs" width="1500" height="1039" viewBox="0 0 1500 1039"><g transform="matrix(1,0,0,1,-1.27764914333477,-1.6758064516129707)"><svg viewBox="0 0 358 248" data-background-color="#ffffff" preserveAspectRatio="xMidYMid meet" height="1039" width="1500" xmlns="http://www.w3.org/2000/svg" xmlns:xlink="http://www.w3.org/1999/xlink"><g id="tight-bounds" transform="matrix(1,0,0,1,1.529622975801459,0.4000000000000057)"><svg viewBox="0 0 356.1656584011577 247.2" height="247.2" width="356.1656584011577"><g><svg viewBox="0 0 356.1656584011577 247.2" height="247.2" width="356.1656584011577"><g transform="matrix(1,0,0,1,201.6209406008683,0)"><svg viewBox="0 0 154.54471780028942 247.2" height="247.2" width="154.54471780028942"><g id="textblocktransform"><svg viewBox="0 0 154.54471780028942 247.2" height="247.2" width="154.54471780028942" id="textblock"><g><svg viewBox="0 0 154.54471780028942 247.2" height="247.2" width="154.54471780028942"><g transform="matrix(1,0,0,1,0,0)"><svg width="154.54471780028942" viewBox="3 -34.55 21.6 34.55" height="247.2" data-palette-color="#696cff"><path d="M24.6-34.55L24.6 0 16.5 0 7.75-28.3Q8.15-24.7 8.38-21.68 8.6-18.65 8.6-14.5L8.6-14.5 8.6 0 3 0 3-34.55 11.05-34.55 19.8-6.25Q19.5-8.05 19.23-11.35 18.95-14.65 18.95-18.05L18.95-18.05 18.95-34.55 24.6-34.55Z" opacity="1" transform="matrix(1,0,0,1,0,0)" fill="#696cff" class="wordmark-text-0" data-fill-palette-color="primary" id="text-0"></path></svg></g></svg></g></svg></g></svg></g><g transform="matrix(1,0,0,1,0,83.05888651775354)"><svg viewBox="0 0 143.2629534008683 81.0822269644929" height="81.0822269644929" width="143.2629534008683"><g><svg xmlns="http://www.w3.org/2000/svg" xmlns:xlink="http://www.w3.org/1999/xlink" version="1.1" x="0" y="0" viewBox="11.821099528511596 31.85491095548784 77.0288009429768 43.59582552640113" enable-background="new 0 0 100 100" xml:space="preserve" height="81.0822269644929" width="143.2629534008683" class="icon-icon-0" data-fill-palette-color="accent" id="icon-0"><g fill="#696cff" data-fill-palette-color="accent"><path d="M17.399 59.888L29.132 71.622A1.59 1.59 0 0 0 31.381 71.622L35.366 67.636A1.59 1.59 0 0 0 35.366 65.388L24.757 54.778A1.59 1.59 0 0 1 24.757 52.529L35.366 41.92A1.59 1.59 0 0 0 35.366 39.67L31.381 35.684A1.59 1.59 0 0 0 29.132 35.684L17.399 47.418 12.287 52.528A1.59 1.59 0 0 0 12.287 54.777z" fill="#696cff" data-fill-palette-color="accent"></path><path d="M88.384 54.777A1.59 1.59 0 0 0 88.384 52.528L83.274 47.418 71.54 35.684A1.59 1.59 0 0 0 69.291 35.684L65.306 39.67A1.59 1.59 0 0 0 65.306 41.92L75.914 52.529A1.59 1.59 0 0 1 75.914 54.778L65.306 65.388A1.59 1.59 0 0 0 65.306 67.636L69.291 71.622A1.59 1.59 0 0 0 71.54 71.622L83.273 59.888z" fill="#696cff" data-fill-palette-color="accent"></path></g><path d="M43.502 75.334L36.818 71.931C36.326 71.681 36.115 71.108 36.349 70.649L55.855 32.345C56.089 31.888 56.677 31.721 57.169 31.971L63.852 35.374C64.345 35.625 64.555 36.199 64.322 36.656L44.814 74.96C44.581 75.418 43.995 75.585 43.502 75.334" fill="#696cff" data-fill-palette-color="accent"></path></svg></g></svg></g></svg></g><defs></defs></svg><rect width="356.1656584011577" height="247.2" fill="none" stroke="none" visibility="hidden"></rect></g></svg></g></svg>